<svg xmlns="http://www.w3.org/2000/svg" width="128" height="128" viewBox="0 0 1024 1024">
  <defs>
    <linearGradient id="bg" x1="0" y1="0" x2="1" y2="1">
      <stop offset="0" stop-color="#4f46e5"/>
      <stop offset="1" stop-color="#06b6d4"/>
    </linearGradient>
  </defs>
  <rect x="64" y="64" width="896" height="896" rx="224" fill="url(#bg)"/>
  <!-- USB drive body -->
  <rect x="370" y="360" width="240" height="380" rx="56" fill="#ffffff"/>
  <!-- connector neck -->
  <rect x="460" y="240" width="92" height="130" fill="#e2e8f0"/>
  <!-- metal tip -->
  <rect x="440" y="180" width="132" height="72" rx="14" fill="#cbd5e1"/>
  <rect x="462" y="198" width="24" height="44" rx="4" fill="#94a3b8"/>
  <rect x="526" y="198" width="24" height="44" rx="4" fill="#94a3b8"/>
  <!-- label panel -->
  <rect x="410" y="470" width="160" height="200" rx="28" fill="#4f46e5" opacity="0.16"/>
  <circle cx="490" cy="570" r="14" fill="#4f46e5" opacity="0.5"/>
  <!-- green backup badge with circular arrow -->
  <circle cx="704" cy="704" r="150" fill="#22c55e"/>
  <path d="M704 612 A92 92 0 1 1 612 704" fill="none" stroke="#ffffff" stroke-width="26" stroke-linecap="round"/>
  <polygon points="744,612 676,586 676,638" fill="#ffffff"/>
</svg>
